<?xml version="1.0" encoding="utf-8"?>
<svg xmlns="http://www.w3.org/2000/svg" xmlns:xlink="http://www.w3.org/1999/xlink" style="margin: auto; background: none; display: block; shape-rendering: auto;" width="197px" height="197px" viewBox="0 0 100 100" preserveAspectRatio="xMidYMid">
<g transform="rotate(0 50 50)">
  <rect x="42" y="22.5" rx="8" ry="4.5" width="16" height="9" fill="#0a0a0a">
    <animate attributeName="opacity" values="1;0" keyTimes="0;1" dur="0.6289308176100629s" begin="-0.621260929590428s" repeatCount="indefinite"></animate>
  </rect>
</g><g transform="rotate(4.390243902439025 50 50)">
  <rect x="42" y="22.5" rx="8" ry="4.5" width="16" height="9" fill="#0a0a0a">
    <animate attributeName="opacity" values="1;0" keyTimes="0;1" dur="0.6289308176100629s" begin="-0.6135910415707931s" repeatCount="indefinite"></animate>
  </rect>
</g><g transform="rotate(8.78048780487805 50 50)">
  <rect x="42" y="22.5" rx="8" ry="4.5" width="16" height="9" fill="#0a0a0a">
    <animate attributeName="opacity" values="1;0" keyTimes="0;1" dur="0.6289308176100629s" begin="-0.6059211535511582s" repeatCount="indefinite"></animate>
  </rect>
</g><g transform="rotate(13.170731707317072 50 50)">
  <rect x="42" y="22.5" rx="8" ry="4.5" width="16" height="9" fill="#0a0a0a">
    <animate attributeName="opacity" values="1;0" keyTimes="0;1" dur="0.6289308176100629s" begin="-0.5982512655315233s" repeatCount="indefinite"></animate>
  </rect>
</g><g transform="rotate(17.5609756097561 50 50)">
  <rect x="42" y="22.5" rx="8" ry="4.5" width="16" height="9" fill="#0a0a0a">
    <animate attributeName="opacity" values="1;0" keyTimes="0;1" dur="0.6289308176100629s" begin="-0.5905813775118883s" repeatCount="indefinite"></animate>
  </rect>
</g><g transform="rotate(21.951219512195124 50 50)">
  <rect x="42" y="22.5" rx="8" ry="4.5" width="16" height="9" fill="#0a0a0a">
    <animate attributeName="opacity" values="1;0" keyTimes="0;1" dur="0.6289308176100629s" begin="-0.5829114894922535s" repeatCount="indefinite"></animate>
  </rect>
</g><g transform="rotate(26.341463414634145 50 50)">
  <rect x="42" y="22.5" rx="8" ry="4.5" width="16" height="9" fill="#0a0a0a">
    <animate attributeName="opacity" values="1;0" keyTimes="0;1" dur="0.6289308176100629s" begin="-0.5752416014726185s" repeatCount="indefinite"></animate>
  </rect>
</g><g transform="rotate(30.73170731707317 50 50)">
  <rect x="42" y="22.5" rx="8" ry="4.5" width="16" height="9" fill="#0a0a0a">
    <animate attributeName="opacity" values="1;0" keyTimes="0;1" dur="0.6289308176100629s" begin="-0.5675717134529836s" repeatCount="indefinite"></animate>
  </rect>
</g><g transform="rotate(35.1219512195122 50 50)">
  <rect x="42" y="22.5" rx="8" ry="4.5" width="16" height="9" fill="#0a0a0a">
    <animate attributeName="opacity" values="1;0" keyTimes="0;1" dur="0.6289308176100629s" begin="-0.5599018254333487s" repeatCount="indefinite"></animate>
  </rect>
</g><g transform="rotate(39.51219512195122 50 50)">
  <rect x="42" y="22.5" rx="8" ry="4.5" width="16" height="9" fill="#0a0a0a">
    <animate attributeName="opacity" values="1;0" keyTimes="0;1" dur="0.6289308176100629s" begin="-0.5522319374137138s" repeatCount="indefinite"></animate>
  </rect>
</g><g transform="rotate(43.90243902439025 50 50)">
  <rect x="42" y="22.5" rx="8" ry="4.5" width="16" height="9" fill="#0a0a0a">
    <animate attributeName="opacity" values="1;0" keyTimes="0;1" dur="0.6289308176100629s" begin="-0.5445620493940788s" repeatCount="indefinite"></animate>
  </rect>
</g><g transform="rotate(48.292682926829265 50 50)">
  <rect x="42" y="22.5" rx="8" ry="4.5" width="16" height="9" fill="#0a0a0a">
    <animate attributeName="opacity" values="1;0" keyTimes="0;1" dur="0.6289308176100629s" begin="-0.536892161374444s" repeatCount="indefinite"></animate>
  </rect>
</g><g transform="rotate(52.68292682926829 50 50)">
  <rect x="42" y="22.5" rx="8" ry="4.5" width="16" height="9" fill="#0a0a0a">
    <animate attributeName="opacity" values="1;0" keyTimes="0;1" dur="0.6289308176100629s" begin="-0.5292222733548091s" repeatCount="indefinite"></animate>
  </rect>
</g><g transform="rotate(57.073170731707314 50 50)">
  <rect x="42" y="22.5" rx="8" ry="4.5" width="16" height="9" fill="#0a0a0a">
    <animate attributeName="opacity" values="1;0" keyTimes="0;1" dur="0.6289308176100629s" begin="-0.5215523853351741s" repeatCount="indefinite"></animate>
  </rect>
</g><g transform="rotate(61.46341463414634 50 50)">
  <rect x="42" y="22.5" rx="8" ry="4.5" width="16" height="9" fill="#0a0a0a">
    <animate attributeName="opacity" values="1;0" keyTimes="0;1" dur="0.6289308176100629s" begin="-0.5138824973155393s" repeatCount="indefinite"></animate>
  </rect>
</g><g transform="rotate(65.85365853658537 50 50)">
  <rect x="42" y="22.5" rx="8" ry="4.5" width="16" height="9" fill="#0a0a0a">
    <animate attributeName="opacity" values="1;0" keyTimes="0;1" dur="0.6289308176100629s" begin="-0.5062126092959043s" repeatCount="indefinite"></animate>
  </rect>
</g><g transform="rotate(70.2439024390244 50 50)">
  <rect x="42" y="22.5" rx="8" ry="4.5" width="16" height="9" fill="#0a0a0a">
    <animate attributeName="opacity" values="1;0" keyTimes="0;1" dur="0.6289308176100629s" begin="-0.49854272127626936s" repeatCount="indefinite"></animate>
  </rect>
</g><g transform="rotate(74.63414634146342 50 50)">
  <rect x="42" y="22.5" rx="8" ry="4.5" width="16" height="9" fill="#0a0a0a">
    <animate attributeName="opacity" values="1;0" keyTimes="0;1" dur="0.6289308176100629s" begin="-0.49087283325663444s" repeatCount="indefinite"></animate>
  </rect>
</g><g transform="rotate(79.02439024390245 50 50)">
  <rect x="42" y="22.5" rx="8" ry="4.5" width="16" height="9" fill="#0a0a0a">
    <animate attributeName="opacity" values="1;0" keyTimes="0;1" dur="0.6289308176100629s" begin="-0.4832029452369996s" repeatCount="indefinite"></animate>
  </rect>
</g><g transform="rotate(83.41463414634147 50 50)">
  <rect x="42" y="22.5" rx="8" ry="4.5" width="16" height="9" fill="#0a0a0a">
    <animate attributeName="opacity" values="1;0" keyTimes="0;1" dur="0.6289308176100629s" begin="-0.47553305721736466s" repeatCount="indefinite"></animate>
  </rect>
</g><g transform="rotate(87.8048780487805 50 50)">
  <rect x="42" y="22.5" rx="8" ry="4.5" width="16" height="9" fill="#0a0a0a">
    <animate attributeName="opacity" values="1;0" keyTimes="0;1" dur="0.6289308176100629s" begin="-0.46786316919772974s" repeatCount="indefinite"></animate>
  </rect>
</g><g transform="rotate(92.1951219512195 50 50)">
  <rect x="42" y="22.5" rx="8" ry="4.5" width="16" height="9" fill="#0a0a0a">
    <animate attributeName="opacity" values="1;0" keyTimes="0;1" dur="0.6289308176100629s" begin="-0.4601932811780948s" repeatCount="indefinite"></animate>
  </rect>
</g><g transform="rotate(96.58536585365853 50 50)">
  <rect x="42" y="22.5" rx="8" ry="4.5" width="16" height="9" fill="#0a0a0a">
    <animate attributeName="opacity" values="1;0" keyTimes="0;1" dur="0.6289308176100629s" begin="-0.4525233931584599s" repeatCount="indefinite"></animate>
  </rect>
</g><g transform="rotate(100.97560975609755 50 50)">
  <rect x="42" y="22.5" rx="8" ry="4.5" width="16" height="9" fill="#0a0a0a">
    <animate attributeName="opacity" values="1;0" keyTimes="0;1" dur="0.6289308176100629s" begin="-0.444853505138825s" repeatCount="indefinite"></animate>
  </rect>
</g><g transform="rotate(105.36585365853658 50 50)">
  <rect x="42" y="22.5" rx="8" ry="4.5" width="16" height="9" fill="#0a0a0a">
    <animate attributeName="opacity" values="1;0" keyTimes="0;1" dur="0.6289308176100629s" begin="-0.43718361711919007s" repeatCount="indefinite"></animate>
  </rect>
</g><g transform="rotate(109.7560975609756 50 50)">
  <rect x="42" y="22.5" rx="8" ry="4.5" width="16" height="9" fill="#0a0a0a">
    <animate attributeName="opacity" values="1;0" keyTimes="0;1" dur="0.6289308176100629s" begin="-0.42951372909955515s" repeatCount="indefinite"></animate>
  </rect>
</g><g transform="rotate(114.14634146341463 50 50)">
  <rect x="42" y="22.5" rx="8" ry="4.5" width="16" height="9" fill="#0a0a0a">
    <animate attributeName="opacity" values="1;0" keyTimes="0;1" dur="0.6289308176100629s" begin="-0.42184384107992023s" repeatCount="indefinite"></animate>
  </rect>
</g><g transform="rotate(118.53658536585365 50 50)">
  <rect x="42" y="22.5" rx="8" ry="4.5" width="16" height="9" fill="#0a0a0a">
    <animate attributeName="opacity" values="1;0" keyTimes="0;1" dur="0.6289308176100629s" begin="-0.4141739530602853s" repeatCount="indefinite"></animate>
  </rect>
</g><g transform="rotate(122.92682926829268 50 50)">
  <rect x="42" y="22.5" rx="8" ry="4.5" width="16" height="9" fill="#0a0a0a">
    <animate attributeName="opacity" values="1;0" keyTimes="0;1" dur="0.6289308176100629s" begin="-0.4065040650406504s" repeatCount="indefinite"></animate>
  </rect>
</g><g transform="rotate(127.3170731707317 50 50)">
  <rect x="42" y="22.5" rx="8" ry="4.5" width="16" height="9" fill="#0a0a0a">
    <animate attributeName="opacity" values="1;0" keyTimes="0;1" dur="0.6289308176100629s" begin="-0.39883417702101553s" repeatCount="indefinite"></animate>
  </rect>
</g><g transform="rotate(131.70731707317074 50 50)">
  <rect x="42" y="22.5" rx="8" ry="4.5" width="16" height="9" fill="#0a0a0a">
    <animate attributeName="opacity" values="1;0" keyTimes="0;1" dur="0.6289308176100629s" begin="-0.3911642890013806s" repeatCount="indefinite"></animate>
  </rect>
</g><g transform="rotate(136.09756097560975 50 50)">
  <rect x="42" y="22.5" rx="8" ry="4.5" width="16" height="9" fill="#0a0a0a">
    <animate attributeName="opacity" values="1;0" keyTimes="0;1" dur="0.6289308176100629s" begin="-0.3834944009817457s" repeatCount="indefinite"></animate>
  </rect>
</g><g transform="rotate(140.4878048780488 50 50)">
  <rect x="42" y="22.5" rx="8" ry="4.5" width="16" height="9" fill="#0a0a0a">
    <animate attributeName="opacity" values="1;0" keyTimes="0;1" dur="0.6289308176100629s" begin="-0.3758245129621108s" repeatCount="indefinite"></animate>
  </rect>
</g><g transform="rotate(144.8780487804878 50 50)">
  <rect x="42" y="22.5" rx="8" ry="4.5" width="16" height="9" fill="#0a0a0a">
    <animate attributeName="opacity" values="1;0" keyTimes="0;1" dur="0.6289308176100629s" begin="-0.36815462494247586s" repeatCount="indefinite"></animate>
  </rect>
</g><g transform="rotate(149.26829268292684 50 50)">
  <rect x="42" y="22.5" rx="8" ry="4.5" width="16" height="9" fill="#0a0a0a">
    <animate attributeName="opacity" values="1;0" keyTimes="0;1" dur="0.6289308176100629s" begin="-0.36048473692284094s" repeatCount="indefinite"></animate>
  </rect>
</g><g transform="rotate(153.65853658536585 50 50)">
  <rect x="42" y="22.5" rx="8" ry="4.5" width="16" height="9" fill="#0a0a0a">
    <animate attributeName="opacity" values="1;0" keyTimes="0;1" dur="0.6289308176100629s" begin="-0.352814848903206s" repeatCount="indefinite"></animate>
  </rect>
</g><g transform="rotate(158.0487804878049 50 50)">
  <rect x="42" y="22.5" rx="8" ry="4.5" width="16" height="9" fill="#0a0a0a">
    <animate attributeName="opacity" values="1;0" keyTimes="0;1" dur="0.6289308176100629s" begin="-0.3451449608835711s" repeatCount="indefinite"></animate>
  </rect>
</g><g transform="rotate(162.4390243902439 50 50)">
  <rect x="42" y="22.5" rx="8" ry="4.5" width="16" height="9" fill="#0a0a0a">
    <animate attributeName="opacity" values="1;0" keyTimes="0;1" dur="0.6289308176100629s" begin="-0.3374750728639362s" repeatCount="indefinite"></animate>
  </rect>
</g><g transform="rotate(166.82926829268294 50 50)">
  <rect x="42" y="22.5" rx="8" ry="4.5" width="16" height="9" fill="#0a0a0a">
    <animate attributeName="opacity" values="1;0" keyTimes="0;1" dur="0.6289308176100629s" begin="-0.32980518484430127s" repeatCount="indefinite"></animate>
  </rect>
</g><g transform="rotate(171.21951219512195 50 50)">
  <rect x="42" y="22.5" rx="8" ry="4.5" width="16" height="9" fill="#0a0a0a">
    <animate attributeName="opacity" values="1;0" keyTimes="0;1" dur="0.6289308176100629s" begin="-0.32213529682466635s" repeatCount="indefinite"></animate>
  </rect>
</g><g transform="rotate(175.609756097561 50 50)">
  <rect x="42" y="22.5" rx="8" ry="4.5" width="16" height="9" fill="#0a0a0a">
    <animate attributeName="opacity" values="1;0" keyTimes="0;1" dur="0.6289308176100629s" begin="-0.31446540880503143s" repeatCount="indefinite"></animate>
  </rect>
</g><g transform="rotate(180 50 50)">
  <rect x="42" y="22.5" rx="8" ry="4.5" width="16" height="9" fill="#0a0a0a">
    <animate attributeName="opacity" values="1;0" keyTimes="0;1" dur="0.6289308176100629s" begin="-0.30679552078539657s" repeatCount="indefinite"></animate>
  </rect>
</g><g transform="rotate(184.390243902439 50 50)">
  <rect x="42" y="22.5" rx="8" ry="4.5" width="16" height="9" fill="#0a0a0a">
    <animate attributeName="opacity" values="1;0" keyTimes="0;1" dur="0.6289308176100629s" begin="-0.29912563276576165s" repeatCount="indefinite"></animate>
  </rect>
</g><g transform="rotate(188.78048780487805 50 50)">
  <rect x="42" y="22.5" rx="8" ry="4.5" width="16" height="9" fill="#0a0a0a">
    <animate attributeName="opacity" values="1;0" keyTimes="0;1" dur="0.6289308176100629s" begin="-0.29145574474612673s" repeatCount="indefinite"></animate>
  </rect>
</g><g transform="rotate(193.17073170731706 50 50)">
  <rect x="42" y="22.5" rx="8" ry="4.5" width="16" height="9" fill="#0a0a0a">
    <animate attributeName="opacity" values="1;0" keyTimes="0;1" dur="0.6289308176100629s" begin="-0.2837858567264918s" repeatCount="indefinite"></animate>
  </rect>
</g><g transform="rotate(197.5609756097561 50 50)">
  <rect x="42" y="22.5" rx="8" ry="4.5" width="16" height="9" fill="#0a0a0a">
    <animate attributeName="opacity" values="1;0" keyTimes="0;1" dur="0.6289308176100629s" begin="-0.2761159687068569s" repeatCount="indefinite"></animate>
  </rect>
</g><g transform="rotate(201.9512195121951 50 50)">
  <rect x="42" y="22.5" rx="8" ry="4.5" width="16" height="9" fill="#0a0a0a">
    <animate attributeName="opacity" values="1;0" keyTimes="0;1" dur="0.6289308176100629s" begin="-0.268446080687222s" repeatCount="indefinite"></animate>
  </rect>
</g><g transform="rotate(206.34146341463415 50 50)">
  <rect x="42" y="22.5" rx="8" ry="4.5" width="16" height="9" fill="#0a0a0a">
    <animate attributeName="opacity" values="1;0" keyTimes="0;1" dur="0.6289308176100629s" begin="-0.26077619266758706s" repeatCount="indefinite"></animate>
  </rect>
</g><g transform="rotate(210.73170731707316 50 50)">
  <rect x="42" y="22.5" rx="8" ry="4.5" width="16" height="9" fill="#0a0a0a">
    <animate attributeName="opacity" values="1;0" keyTimes="0;1" dur="0.6289308176100629s" begin="-0.25310630464795214s" repeatCount="indefinite"></animate>
  </rect>
</g><g transform="rotate(215.1219512195122 50 50)">
  <rect x="42" y="22.5" rx="8" ry="4.5" width="16" height="9" fill="#0a0a0a">
    <animate attributeName="opacity" values="1;0" keyTimes="0;1" dur="0.6289308176100629s" begin="-0.24543641662831722s" repeatCount="indefinite"></animate>
  </rect>
</g><g transform="rotate(219.5121951219512 50 50)">
  <rect x="42" y="22.5" rx="8" ry="4.5" width="16" height="9" fill="#0a0a0a">
    <animate attributeName="opacity" values="1;0" keyTimes="0;1" dur="0.6289308176100629s" begin="-0.23776652860868233s" repeatCount="indefinite"></animate>
  </rect>
</g><g transform="rotate(223.90243902439025 50 50)">
  <rect x="42" y="22.5" rx="8" ry="4.5" width="16" height="9" fill="#0a0a0a">
    <animate attributeName="opacity" values="1;0" keyTimes="0;1" dur="0.6289308176100629s" begin="-0.2300966405890474s" repeatCount="indefinite"></animate>
  </rect>
</g><g transform="rotate(228.29268292682926 50 50)">
  <rect x="42" y="22.5" rx="8" ry="4.5" width="16" height="9" fill="#0a0a0a">
    <animate attributeName="opacity" values="1;0" keyTimes="0;1" dur="0.6289308176100629s" begin="-0.2224267525694125s" repeatCount="indefinite"></animate>
  </rect>
</g><g transform="rotate(232.6829268292683 50 50)">
  <rect x="42" y="22.5" rx="8" ry="4.5" width="16" height="9" fill="#0a0a0a">
    <animate attributeName="opacity" values="1;0" keyTimes="0;1" dur="0.6289308176100629s" begin="-0.21475686454977758s" repeatCount="indefinite"></animate>
  </rect>
</g><g transform="rotate(237.0731707317073 50 50)">
  <rect x="42" y="22.5" rx="8" ry="4.5" width="16" height="9" fill="#0a0a0a">
    <animate attributeName="opacity" values="1;0" keyTimes="0;1" dur="0.6289308176100629s" begin="-0.20708697653014266s" repeatCount="indefinite"></animate>
  </rect>
</g><g transform="rotate(241.46341463414635 50 50)">
  <rect x="42" y="22.5" rx="8" ry="4.5" width="16" height="9" fill="#0a0a0a">
    <animate attributeName="opacity" values="1;0" keyTimes="0;1" dur="0.6289308176100629s" begin="-0.19941708851050777s" repeatCount="indefinite"></animate>
  </rect>
</g><g transform="rotate(245.85365853658536 50 50)">
  <rect x="42" y="22.5" rx="8" ry="4.5" width="16" height="9" fill="#0a0a0a">
    <animate attributeName="opacity" values="1;0" keyTimes="0;1" dur="0.6289308176100629s" begin="-0.19174720049087285s" repeatCount="indefinite"></animate>
  </rect>
</g><g transform="rotate(250.2439024390244 50 50)">
  <rect x="42" y="22.5" rx="8" ry="4.5" width="16" height="9" fill="#0a0a0a">
    <animate attributeName="opacity" values="1;0" keyTimes="0;1" dur="0.6289308176100629s" begin="-0.18407731247123793s" repeatCount="indefinite"></animate>
  </rect>
</g><g transform="rotate(254.6341463414634 50 50)">
  <rect x="42" y="22.5" rx="8" ry="4.5" width="16" height="9" fill="#0a0a0a">
    <animate attributeName="opacity" values="1;0" keyTimes="0;1" dur="0.6289308176100629s" begin="-0.176407424451603s" repeatCount="indefinite"></animate>
  </rect>
</g><g transform="rotate(259.0243902439024 50 50)">
  <rect x="42" y="22.5" rx="8" ry="4.5" width="16" height="9" fill="#0a0a0a">
    <animate attributeName="opacity" values="1;0" keyTimes="0;1" dur="0.6289308176100629s" begin="-0.1687375364319681s" repeatCount="indefinite"></animate>
  </rect>
</g><g transform="rotate(263.4146341463415 50 50)">
  <rect x="42" y="22.5" rx="8" ry="4.5" width="16" height="9" fill="#0a0a0a">
    <animate attributeName="opacity" values="1;0" keyTimes="0;1" dur="0.6289308176100629s" begin="-0.16106764841233318s" repeatCount="indefinite"></animate>
  </rect>
</g><g transform="rotate(267.8048780487805 50 50)">
  <rect x="42" y="22.5" rx="8" ry="4.5" width="16" height="9" fill="#0a0a0a">
    <animate attributeName="opacity" values="1;0" keyTimes="0;1" dur="0.6289308176100629s" begin="-0.15339776039269828s" repeatCount="indefinite"></animate>
  </rect>
</g><g transform="rotate(272.1951219512195 50 50)">
  <rect x="42" y="22.5" rx="8" ry="4.5" width="16" height="9" fill="#0a0a0a">
    <animate attributeName="opacity" values="1;0" keyTimes="0;1" dur="0.6289308176100629s" begin="-0.14572787237306337s" repeatCount="indefinite"></animate>
  </rect>
</g><g transform="rotate(276.5853658536585 50 50)">
  <rect x="42" y="22.5" rx="8" ry="4.5" width="16" height="9" fill="#0a0a0a">
    <animate attributeName="opacity" values="1;0" keyTimes="0;1" dur="0.6289308176100629s" begin="-0.13805798435342845s" repeatCount="indefinite"></animate>
  </rect>
</g><g transform="rotate(280.9756097560976 50 50)">
  <rect x="42" y="22.5" rx="8" ry="4.5" width="16" height="9" fill="#0a0a0a">
    <animate attributeName="opacity" values="1;0" keyTimes="0;1" dur="0.6289308176100629s" begin="-0.13038809633379353s" repeatCount="indefinite"></animate>
  </rect>
</g><g transform="rotate(285.3658536585366 50 50)">
  <rect x="42" y="22.5" rx="8" ry="4.5" width="16" height="9" fill="#0a0a0a">
    <animate attributeName="opacity" values="1;0" keyTimes="0;1" dur="0.6289308176100629s" begin="-0.12271820831415861s" repeatCount="indefinite"></animate>
  </rect>
</g><g transform="rotate(289.7560975609756 50 50)">
  <rect x="42" y="22.5" rx="8" ry="4.5" width="16" height="9" fill="#0a0a0a">
    <animate attributeName="opacity" values="1;0" keyTimes="0;1" dur="0.6289308176100629s" begin="-0.1150483202945237s" repeatCount="indefinite"></animate>
  </rect>
</g><g transform="rotate(294.1463414634146 50 50)">
  <rect x="42" y="22.5" rx="8" ry="4.5" width="16" height="9" fill="#0a0a0a">
    <animate attributeName="opacity" values="1;0" keyTimes="0;1" dur="0.6289308176100629s" begin="-0.10737843227488879s" repeatCount="indefinite"></animate>
  </rect>
</g><g transform="rotate(298.5365853658537 50 50)">
  <rect x="42" y="22.5" rx="8" ry="4.5" width="16" height="9" fill="#0a0a0a">
    <animate attributeName="opacity" values="1;0" keyTimes="0;1" dur="0.6289308176100629s" begin="-0.09970854425525388s" repeatCount="indefinite"></animate>
  </rect>
</g><g transform="rotate(302.9268292682927 50 50)">
  <rect x="42" y="22.5" rx="8" ry="4.5" width="16" height="9" fill="#0a0a0a">
    <animate attributeName="opacity" values="1;0" keyTimes="0;1" dur="0.6289308176100629s" begin="-0.09203865623561897s" repeatCount="indefinite"></animate>
  </rect>
</g><g transform="rotate(307.3170731707317 50 50)">
  <rect x="42" y="22.5" rx="8" ry="4.5" width="16" height="9" fill="#0a0a0a">
    <animate attributeName="opacity" values="1;0" keyTimes="0;1" dur="0.6289308176100629s" begin="-0.08436876821598405s" repeatCount="indefinite"></animate>
  </rect>
</g><g transform="rotate(311.7073170731707 50 50)">
  <rect x="42" y="22.5" rx="8" ry="4.5" width="16" height="9" fill="#0a0a0a">
    <animate attributeName="opacity" values="1;0" keyTimes="0;1" dur="0.6289308176100629s" begin="-0.07669888019634914s" repeatCount="indefinite"></animate>
  </rect>
</g><g transform="rotate(316.0975609756098 50 50)">
  <rect x="42" y="22.5" rx="8" ry="4.5" width="16" height="9" fill="#0a0a0a">
    <animate attributeName="opacity" values="1;0" keyTimes="0;1" dur="0.6289308176100629s" begin="-0.06902899217671422s" repeatCount="indefinite"></animate>
  </rect>
</g><g transform="rotate(320.4878048780488 50 50)">
  <rect x="42" y="22.5" rx="8" ry="4.5" width="16" height="9" fill="#0a0a0a">
    <animate attributeName="opacity" values="1;0" keyTimes="0;1" dur="0.6289308176100629s" begin="-0.061359104157079306s" repeatCount="indefinite"></animate>
  </rect>
</g><g transform="rotate(324.8780487804878 50 50)">
  <rect x="42" y="22.5" rx="8" ry="4.5" width="16" height="9" fill="#0a0a0a">
    <animate attributeName="opacity" values="1;0" keyTimes="0;1" dur="0.6289308176100629s" begin="-0.053689216137444394s" repeatCount="indefinite"></animate>
  </rect>
</g><g transform="rotate(329.2682926829268 50 50)">
  <rect x="42" y="22.5" rx="8" ry="4.5" width="16" height="9" fill="#0a0a0a">
    <animate attributeName="opacity" values="1;0" keyTimes="0;1" dur="0.6289308176100629s" begin="-0.04601932811780948s" repeatCount="indefinite"></animate>
  </rect>
</g><g transform="rotate(333.6585365853659 50 50)">
  <rect x="42" y="22.5" rx="8" ry="4.5" width="16" height="9" fill="#0a0a0a">
    <animate attributeName="opacity" values="1;0" keyTimes="0;1" dur="0.6289308176100629s" begin="-0.03834944009817457s" repeatCount="indefinite"></animate>
  </rect>
</g><g transform="rotate(338.0487804878049 50 50)">
  <rect x="42" y="22.5" rx="8" ry="4.5" width="16" height="9" fill="#0a0a0a">
    <animate attributeName="opacity" values="1;0" keyTimes="0;1" dur="0.6289308176100629s" begin="-0.030679552078539653s" repeatCount="indefinite"></animate>
  </rect>
</g><g transform="rotate(342.4390243902439 50 50)">
  <rect x="42" y="22.5" rx="8" ry="4.5" width="16" height="9" fill="#0a0a0a">
    <animate attributeName="opacity" values="1;0" keyTimes="0;1" dur="0.6289308176100629s" begin="-0.02300966405890474s" repeatCount="indefinite"></animate>
  </rect>
</g><g transform="rotate(346.8292682926829 50 50)">
  <rect x="42" y="22.5" rx="8" ry="4.5" width="16" height="9" fill="#0a0a0a">
    <animate attributeName="opacity" values="1;0" keyTimes="0;1" dur="0.6289308176100629s" begin="-0.015339776039269826s" repeatCount="indefinite"></animate>
  </rect>
</g><g transform="rotate(351.219512195122 50 50)">
  <rect x="42" y="22.5" rx="8" ry="4.5" width="16" height="9" fill="#0a0a0a">
    <animate attributeName="opacity" values="1;0" keyTimes="0;1" dur="0.6289308176100629s" begin="-0.007669888019634913s" repeatCount="indefinite"></animate>
  </rect>
</g><g transform="rotate(355.609756097561 50 50)">
  <rect x="42" y="22.5" rx="8" ry="4.5" width="16" height="9" fill="#0a0a0a">
    <animate attributeName="opacity" values="1;0" keyTimes="0;1" dur="0.6289308176100629s" begin="0s" repeatCount="indefinite"></animate>
  </rect>
</g>
<!-- [ldio] generated by https://loading.io/ --></svg>